<?xml version="1.0" standalone="no"?>
<!DOCTYPE svg PUBLIC "-//W3C//DTD SVG 20010904//EN"
 "http://www.w3.org/TR/2001/REC-SVG-20010904/DTD/svg10.dtd">
<svg version="1.0" xmlns="http://www.w3.org/2000/svg"
 width="512.000000pt" height="512.000000pt" viewBox="0 0 512.000000 512.000000"
 preserveAspectRatio="xMidYMid meet">
<metadata>
Created by potrace 1.14, written by Peter Selinger 2001-2017
</metadata>
<g transform="translate(0.000000,512.000000) scale(0.100000,-0.100000)"
fill="#000000" stroke="none">
<path d="M2255 5061 c-2 -4 -18 -6 -34 -5 -17 1 -31 -3 -31 -9 0 -6 -3 -7 -7
-4 -3 4 -12 2 -20 -4 -9 -9 -13 -8 -13 0 0 9 -5 9 -20 1 -15 -8 -20 -8 -20 2
0 8 -3 9 -8 3 -4 -6 -20 -12 -37 -13 -46 -6 -50 -7 -55 -14 -5 -6 -76 -20
-107 -21 -7 0 -10 -4 -7 -9 5 -7 -25 -12 -53 -9 -7 1 -13 -4 -13 -10 0 -7 -3
-9 -7 -6 -3 4 -13 1 -21 -6 -13 -9 -14 -9 -8 0 5 9 2 11 -8 7 -9 -3 -16 -10
-16 -14 0 -4 -18 -10 -40 -14 -22 -3 -40 -11 -40 -16 0 -6 -10 -10 -23 -10
-13 0 -28 -5 -35 -12 -7 -7 -12 -9 -12 -4 0 4 -7 0 -16 -8 -8 -9 -24 -16 -35
-16 -11 0 -22 -6 -25 -14 -3 -8 -14 -13 -25 -11 -10 2 -19 0 -19 -5 0 -5 -11
-12 -25 -16 -14 -3 -25 -10 -25 -16 0 -5 -4 -7 -9 -4 -5 3 -14 0 -20 -8 -7 -8
-23 -17 -36 -20 -14 -4 -25 -11 -25 -16 0 -6 -5 -10 -11 -10 -6 0 -30 -13 -54
-30 -24 -16 -46 -30 -50 -30 -3 0 -15 -9 -27 -20 -12 -10 -25 -17 -30 -14 -4
3 -8 1 -8 -5 0 -5 -17 -20 -37 -32 -21 -13 -45 -31 -55 -41 -10 -10 -23 -18
-29 -18 -5 0 -7 -4 -4 -10 3 -5 1 -10 -4 -10 -20 0 -26 -4 -44 -27 -10 -13
-23 -20 -29 -17 -7 5 -8 2 -4 -5 5 -8 1 -14 -12 -18 -11 -2 -25 -16 -32 -29
-8 -13 -16 -22 -18 -19 -9 9 -32 -17 -25 -28 3 -6 1 -7 -5 -3 -7 4 -12 2 -12
-3 0 -6 -7 -11 -17 -11 -9 0 -14 -2 -11 -5 7 -8 -56 -75 -70 -75 -7 0 -12 -4
-12 -10 0 -5 -10 -20 -22 -33 -41 -43 -73 -88 -70 -99 2 -6 -4 -8 -13 -4 -9 3
-14 2 -11 -3 3 -4 -8 -23 -24 -41 -16 -18 -32 -42 -36 -52 -3 -10 -12 -18 -20
-18 -8 0 -13 -4 -10 -8 3 -5 -5 -20 -17 -33 -12 -13 -21 -27 -19 -32 1 -4 -5
-10 -13 -13 -8 -3 -12 -10 -9 -15 3 -5 -2 -12 -10 -15 -9 -3 -16 -12 -16 -20
0 -8 -4 -14 -10 -14 -5 0 -10 -7 -10 -16 0 -8 -4 -13 -9 -10 -4 3 -14 -12 -21
-34 -7 -22 -16 -37 -21 -35 -7 5 -22 -27 -24 -48 0 -4 -5 -11 -11 -15 -12 -8
-26 -39 -29 -65 -1 -11 -8 -23 -16 -28 -8 -5 -11 -9 -6 -9 4 0 0 -11 -9 -25
-8 -13 -13 -29 -9 -35 3 -5 1 -10 -4 -10 -6 0 -11 -5 -11 -11 0 -5 6 -7 13 -4
6 4 1 -3 -13 -15 -14 -12 -18 -19 -10 -15 9 4 7 0 -3 -9 -10 -8 -17 -23 -15
-33 2 -10 -3 -24 -12 -31 -8 -8 -10 -11 -4 -8 6 3 11 -1 11 -8 0 -8 -7 -12
-15 -8 -10 3 -13 1 -8 -6 3 -6 2 -13 -4 -17 -6 -4 -8 -10 -5 -15 3 -5 1 -12
-5 -15 -8 -5 -7 -11 1 -21 9 -11 9 -14 0 -14 -7 0 -10 -4 -6 -9 3 -5 -2 -16
-10 -25 -16 -16 -23 -39 -27 -88 -1 -16 -7 -28 -13 -28 -5 0 -4 -4 4 -9 9 -6
10 -11 2 -15 -6 -4 -11 -16 -11 -27 0 -11 -4 -18 -9 -15 -4 3 -7 -10 -6 -29 1
-19 -1 -35 -5 -35 -3 0 -5 -18 -4 -40 1 -22 -2 -40 -7 -40 -5 0 -4 -12 1 -26
12 -31 12 -37 1 -30 -4 3 -6 -6 -3 -21 3 -18 -1 -30 -12 -39 -16 -11 -16 -13
1 -24 17 -11 17 -11 0 -6 -15 5 -17 2 -12 -15 6 -17 4 -20 -6 -13 -12 6 -12 5
0 -9 11 -14 11 -17 0 -17 -11 0 -11 -2 1 -10 8 -5 10 -10 5 -10 -12 0 -11 -81
1 -102 6 -9 3 -9 -11 2 -17 14 -18 14 -7 -7 15 -28 15 -36 0 -27 -7 5 -8 3 -2
-7 13 -20 13 -112 0 -128 -8 -11 -8 -13 0 -8 7 4 11 -12 10 -51 -1 -31 3 -60
9 -64 7 -5 6 -8 -1 -8 -13 0 -6 -59 10 -79 8 -12 8 -13 -2 -7 -9 5 -12 -1 -10
-24 2 -22 6 -29 17 -25 11 4 11 2 3 -8 -9 -10 -7 -19 5 -37 9 -13 12 -20 6
-17 -7 4 -10 -4 -9 -23 0 -17 3 -30 6 -30 3 0 6 -30 7 -66 2 -37 8 -74 15 -82
10 -12 10 -14 1 -8 -7 4 -13 2 -13 -3 0 -6 4 -11 10 -11 5 0 7 -7 4 -15 -5
-12 -2 -14 12 -8 16 6 17 5 6 -9 -10 -12 -10 -18 -1 -23 8 -6 7 -10 -2 -16
-12 -7 -12 -9 0 -9 8 0 11 -7 8 -20 -3 -11 -2 -20 3 -20 4 0 6 -12 4 -26 -2
-19 3 -28 17 -31 10 -3 19 -10 19 -15 0 -5 -5 -6 -11 -2 -6 3 -5 -4 3 -17 8
-13 14 -34 13 -46 -1 -12 2 -20 6 -17 5 3 9 -5 9 -16 0 -15 5 -20 14 -17 10 4
12 -3 10 -24 -4 -30 22 -83 35 -74 4 2 5 -9 3 -26 -3 -18 0 -29 7 -29 7 0 10
-4 7 -9 -3 -5 1 -12 10 -15 9 -4 14 -13 10 -21 -3 -10 1 -15 12 -15 13 0 14
-2 3 -9 -10 -6 -10 -10 -1 -16 6 -4 9 -14 5 -23 -3 -9 -3 -14 0 -10 11 11 45
-25 36 -36 -10 -13 13 -38 25 -28 4 4 4 2 1 -5 -4 -6 -2 -17 5 -25 7 -7 14
-20 16 -28 2 -7 11 -21 20 -29 9 -9 18 -22 20 -29 1 -7 11 -23 22 -35 11 -11
20 -27 20 -34 0 -7 6 -13 13 -13 8 0 7 -4 -3 -10 -12 -8 -11 -10 8 -10 14 0
22 -6 22 -16 0 -9 15 -30 33 -46 17 -17 26 -27 18 -22 -9 5 -12 3 -7 -4 4 -7
14 -12 22 -12 8 0 13 -3 11 -8 -3 -4 10 -23 29 -42 19 -19 34 -40 34 -48 0 -8
6 -12 15 -8 10 3 17 -3 21 -19 4 -16 13 -25 25 -25 10 0 18 -3 18 -7 -3 -18 1
-36 7 -30 8 7 34 -17 34 -32 0 -5 9 -12 19 -16 11 -3 23 -14 26 -24 3 -11 15
-21 26 -24 12 -3 18 -10 15 -16 -4 -5 3 -12 14 -16 11 -3 20 -13 20 -21 0 -8
4 -13 9 -10 5 3 23 -8 41 -24 18 -17 36 -30 42 -30 5 0 6 -5 3 -10 -3 -6 2
-10 12 -10 10 0 25 -9 33 -20 8 -11 20 -20 27 -20 7 0 13 -4 13 -10 0 -5 9
-10 21 -10 11 0 17 -5 14 -10 -3 -6 -1 -10 5 -10 6 0 18 -6 25 -13 34 -30 43
-35 49 -30 3 4 6 1 6 -5 0 -7 3 -11 8 -10 7 2 61 -30 72 -42 6 -7 31 -17 44
-18 5 0 12 -5 16 -12 4 -6 16 -12 28 -13 11 0 18 -5 16 -9 -5 -7 10 -12 29 -9
4 0 7 -3 7 -7 0 -5 16 -14 35 -22 19 -8 35 -18 35 -22 0 -5 5 -6 11 -3 6 4 17
-1 25 -11 9 -11 12 -12 8 -4 -5 10 -1 9 14 -3 11 -11 26 -16 31 -12 6 3 11 2
11 -3 0 -5 10 -13 23 -17 30 -10 36 -12 42 -15 3 -1 8 -3 13 -5 4 -1 14 -5 22
-8 8 -4 25 -8 37 -10 12 -2 26 -6 29 -10 4 -4 16 -7 26 -7 10 0 18 -4 18 -8 0
-4 10 -8 23 -9 27 -1 53 -8 91 -22 16 -6 37 -9 47 -6 11 4 19 2 19 -5 0 -6 4
-9 9 -5 5 3 12 1 16 -5 4 -6 11 -8 16 -5 5 4 9 2 9 -3 0 -5 10 -8 22 -7 26 2
106 -11 132 -21 15 -6 18 -4 12 7 -6 11 -4 10 6 -1 9 -10 32 -15 75 -15 35 0
63 -4 63 -8 0 -4 8 -3 19 2 10 6 21 7 25 4 11 -11 339 -10 354 0 8 6 12 5 12
-2 0 -7 4 -9 10 -6 5 3 34 8 63 10 30 2 72 7 93 11 21 5 45 7 52 6 6 -2 12 1
12 5 0 4 20 8 45 7 27 0 42 3 38 9 -4 6 0 8 9 4 9 -3 19 -3 22 1 9 8 34 14 69
15 15 1 27 5 27 10 0 4 5 5 10 2 6 -3 10 -2 10 3 0 5 6 9 13 10 12 1 47 9 57
12 3 1 8 2 13 1 4 0 7 4 7 9 0 5 3 9 8 8 8 -1 39 9 65 23 11 6 21 8 24 5 4 -3
12 2 20 12 8 9 12 11 8 4 -3 -6 11 -2 31 10 21 12 46 23 57 23 10 1 23 8 28
16 5 8 9 11 9 6 0 -4 10 -1 23 8 13 8 27 12 30 9 4 -4 9 0 13 9 3 9 12 13 19
11 7 -3 23 5 35 18 13 13 19 16 15 8 -6 -11 -3 -10 12 3 11 9 23 14 26 10 4
-3 7 -1 7 5 0 7 7 12 15 12 8 0 15 5 15 11 0 5 4 8 9 5 5 -4 11 -3 13 1 1 5
35 28 73 53 39 25 72 48 73 53 2 4 8 5 13 1 5 -3 9 0 9 6 0 6 5 8 10 5 6 -3
10 1 10 10 0 9 5 13 10 10 6 -3 13 1 16 9 3 9 12 16 20 16 7 0 18 9 24 20 6
11 15 18 21 15 5 -4 9 -1 9 4 0 6 7 11 15 11 8 0 15 7 15 16 0 8 4 13 8 10 5
-3 25 10 45 29 21 19 37 33 37 30 0 -3 9 4 20 15 11 11 20 25 20 32 0 6 3 8 7
5 3 -4 13 2 20 13 8 11 19 18 24 15 5 -4 9 1 9 10 0 9 9 19 20 22 11 3 17 9
14 14 -3 5 -1 9 4 9 5 0 15 11 22 25 7 13 17 22 22 19 4 -3 8 -2 8 3 0 4 11
21 25 37 14 16 25 33 25 38 0 5 3 7 8 5 8 -6 33 19 26 26 -6 6 69 82 79 79 6
-2 11 21 8 40 0 4 8 10 19 13 11 4 18 11 15 16 -4 5 -1 9 4 9 6 0 11 9 11 21
0 11 3 18 8 16 4 -2 15 4 24 14 12 12 13 19 5 23 -9 3 -9 5 1 5 6 1 12 8 12
16 0 8 5 14 11 12 7 -1 16 13 21 31 5 18 13 30 18 27 6 -4 10 1 10 9 0 9 6 16
13 16 8 0 7 4 -3 10 -10 6 -11 10 -2 10 6 0 12 7 12 15 0 8 7 15 16 15 10 0
14 6 11 14 -3 8 -3 17 1 20 3 4 7 14 8 24 2 9 8 18 13 20 6 2 11 10 11 18 0 8
4 14 9 14 5 0 7 9 4 20 -3 12 0 20 6 20 7 0 9 5 6 10 -3 6 -1 10 5 10 6 0 8 5
5 10 -3 6 -1 10 4 10 6 0 11 9 11 20 0 11 4 20 9 20 5 0 7 12 5 27 -3 15 -2
24 2 20 8 -7 33 21 34 38 0 6 -5 3 -10 -5 -5 -8 -10 -10 -10 -4 0 6 7 17 15
24 13 11 13 15 3 21 -10 7 -10 9 1 9 8 0 11 7 8 20 -3 11 -2 18 3 15 4 -3 11
2 14 11 4 10 2 13 -7 9 -6 -4 -3 1 7 9 11 9 17 16 13 16 -4 0 -2 11 3 25 6 17
6 25 -1 25 -5 0 -3 10 5 22 11 15 12 26 5 40 -7 14 -7 18 3 16 7 -2 12 3 11
10 -2 6 1 12 5 12 5 0 9 6 10 13 4 29 13 115 15 147 2 25 8 36 21 38 14 3 15
6 6 12 -8 5 -9 13 -4 21 4 8 9 45 11 84 1 38 4 84 6 102 2 18 -1 34 -7 37 -7
3 -7 5 0 5 10 1 10 22 1 283 -1 42 -6 80 -10 84 -4 4 -2 13 4 21 9 10 8 13 -2
13 -11 0 -11 2 1 10 10 6 11 10 3 10 -7 0 -12 3 -12 8 3 19 -2 33 -11 27 -6
-3 -7 1 -4 9 3 9 11 13 18 10 6 -3 3 1 -7 9 -10 8 -17 27 -17 43 1 77 -6 134
-17 139 -7 2 -13 10 -13 17 0 9 3 8 10 -2 6 -9 10 -10 10 -3 0 6 -5 15 -10 18
-6 4 -8 10 -5 15 3 5 0 12 -6 16 -8 5 -9 3 -4 -6 5 -8 4 -11 -3 -7 -5 4 -8 17
-4 29 4 16 2 19 -9 13 -11 -7 -11 -5 1 10 12 14 12 19 2 23 -10 3 -10 7 -1 18
9 11 9 14 0 14 -7 0 -10 4 -6 9 3 5 1 12 -5 16 -6 4 -8 11 -5 16 4 5 0 9 -8 9
-10 0 -13 9 -11 30 2 16 -1 32 -6 35 -5 3 -7 14 -5 25 2 12 0 18 -4 15 -10 -6
-25 24 -22 43 1 6 -2 12 -7 12 -6 0 -10 6 -9 13 1 36 -4 57 -13 52 -9 -6 -14
8 -11 28 0 4 -3 7 -7 7 -5 0 -9 6 -9 13 -1 33 -22 69 -35 61 -4 -3 -5 4 -3 16
2 11 -1 22 -6 25 -5 4 -7 10 -4 15 3 5 -3 18 -15 30 -11 11 -20 27 -20 36 0
16 -24 46 -32 39 -2 -2 -4 4 -5 13 -3 32 -8 45 -29 69 -14 14 -20 31 -17 44 4
13 1 19 -8 17 -7 -2 -20 11 -28 29 -9 18 -25 40 -36 48 -11 9 -14 13 -6 9 9
-5 7 2 -5 18 -10 14 -23 23 -28 20 -5 -3 -6 0 -2 6 3 6 -1 18 -10 26 -8 9 -12
16 -7 16 4 0 -3 7 -15 16 -12 8 -20 20 -17 25 4 5 1 9 -4 9 -6 0 -11 7 -11 15
0 8 -3 14 -7 13 -5 -2 -9 0 -10 5 -1 4 -16 22 -33 40 -16 17 -30 36 -30 40 0
5 -4 5 -10 2 -5 -3 -10 1 -10 9 0 9 -9 21 -20 28 -11 7 -20 19 -20 26 0 7 -4
10 -10 7 -6 -3 -10 -2 -10 4 0 12 -59 71 -71 71 -6 0 -7 5 -4 10 3 6 1 10 -5
10 -7 0 -25 14 -41 31 -16 17 -29 28 -29 25 0 -4 -19 12 -41 34 -23 23 -44 39
-46 36 -3 -3 -24 13 -46 35 -23 21 -47 39 -55 39 -7 0 -10 5 -7 10 6 9 -17 15
-40 10 -5 -1 -7 1 -3 5 8 9 -14 35 -25 28 -4 -2 -10 3 -13 11 -3 9 -14 16 -25
16 -10 0 -23 8 -28 18 -6 9 -11 14 -11 10 0 -7 -25 10 -55 39 -7 7 -15 10 -18
7 -3 -4 -13 0 -22 7 -34 30 -41 34 -55 37 -8 2 -26 11 -40 20 -14 9 -31 17
-39 18 -8 2 -17 8 -21 14 -4 7 -10 11 -14 11 -10 -2 -23 2 -61 18 -16 7 -37
14 -45 16 -8 2 -17 4 -20 5 -3 1 -8 2 -12 1 -5 0 -8 3 -8 8 0 5 -18 12 -40 16
-22 4 -42 11 -46 16 -3 5 -9 7 -13 4 -5 -2 -23 2 -40 11 -18 9 -41 14 -52 11
-10 -3 -17 -1 -13 4 3 5 -3 9 -14 9 -10 0 -22 3 -25 7 -4 3 -17 8 -29 9 -28 4
-63 12 -63 14 0 4 -44 12 -72 12 -22 0 -30 4 -26 12 5 7 2 7 -8 -1 -9 -7 -20
-8 -29 -3 -8 5 -18 6 -22 4 -4 -3 -8 1 -8 8 0 9 -3 9 -10 -2 -8 -12 -10 -12
-10 -1 0 8 -7 11 -20 8 -11 -3 -20 -2 -20 2 0 10 -609 11 -615 2z"/>
</g>
</svg>
